<?xml version="1.0" standalone="no"?>
<!DOCTYPE svg PUBLIC "-//W3C//DTD SVG 20010904//EN"
 "http://www.w3.org/TR/2001/REC-SVG-20010904/DTD/svg10.dtd">
<svg version="1.0" xmlns="http://www.w3.org/2000/svg"
 width="207.000000pt" height="135.000000pt" viewBox="0 0 207.000000 135.000000"
 preserveAspectRatio="xMidYMid meet">
<metadata>
Created by potrace 1.15, written by Peter Selinger 2001-2017
</metadata>
<g transform="translate(0.000000,135.000000) scale(0.100000,-0.100000)"
fill="#000000" stroke="none">
<path d="M125 1208 c-3 -7 -4 -258 -3 -557 2 -404 6 -545 15 -548 6 -2 13 4
15 13 9 46 -3 1104 -12 1104 -6 0 -13 -6 -15 -12z"/>
<path d="M320 1208 c0 -17 341 -512 354 -513 11 0 356 497 353 509 -2 6 -7 11
-13 12 -5 2 -83 -105 -173 -237 -90 -132 -166 -237 -170 -234 -3 3 -78 110
-166 237 -150 217 -185 260 -185 226z"/>
<path d="M1198 673 c-2 -301 -1 -554 1 -561 2 -7 9 -11 15 -9 17 6 16 1109 -1
1114 -10 4 -13 -115 -15 -544z"/>
<path d="M1327 1203 c-4 -3 -7 -251 -7 -549 0 -509 3 -574 26 -552 2 3 5 245
7 539 l2 534 278 3 c216 2 278 5 274 15 -3 9 -73 13 -289 15 -156 1 -287 -1
-291 -5z"/>
<path d="M1540 870 l0 -120 136 0 c104 0 135 3 132 13 -3 8 -39 13 -121 15
l-117 3 0 89 0 90 167 2 c122 2 167 6 171 16 3 9 -38 12 -182 12 l-186 0 0
-120z"/>
<path d="M347 803 c-4 -3 -7 -163 -7 -355 0 -301 2 -348 15 -348 13 0 15 44
17 316 l3 316 140 -201 c76 -111 145 -206 151 -212 13 -10 50 38 232 303 37
54 70 98 75 98 4 0 7 -139 7 -310 0 -270 2 -310 15 -310 13 0 15 43 13 352 -2
223 -7 352 -13 354 -5 2 -78 -95 -161 -214 -83 -119 -155 -217 -159 -217 -5 0
-77 98 -159 217 -83 120 -154 218 -157 218 -3 0 -9 -3 -12 -7z"/>
<path d="M1540 329 c0 -180 3 -230 13 -227 9 4 13 58 15 216 l2 211 117 3 c82
2 118 7 121 16 3 9 -28 12 -132 12 l-136 0 0 -231z"/>
</g>
</svg>
