<?xml version="1.0" standalone="no"?>
<!DOCTYPE svg PUBLIC "-//W3C//DTD SVG 20010904//EN"
 "http://www.w3.org/TR/2001/REC-SVG-20010904/DTD/svg10.dtd">
<svg version="1.0" xmlns="http://www.w3.org/2000/svg"
 width="210.000000pt" height="138.000000pt" viewBox="0 0 210.000000 138.000000"
 preserveAspectRatio="xMidYMid meet">
<metadata>
Created by potrace 1.15, written by Peter Selinger 2001-2017
</metadata>
<g transform="translate(0.000000,138.000000) scale(0.100000,-0.100000)"
fill="#000000" stroke="none">
<path d="M9 1366 c-2 -3 -3 -310 -1 -684 l2 -680 33 3 c17 2 485 3 1040 4
l1007 1 0 680 -1 680 -1038 0 c-571 0 -1040 -2 -1042 -4z m2050 -30 c8 -9 10
-190 9 -657 l-3 -644 -1015 0 -1015 0 -3 658 -2 657 1009 0 c839 0 1010 -2
1020 -14z"/>
<path d="M119 1234 c-7 -8 -7 -14 1 -19 7 -4 10 -181 10 -548 0 -322 4 -548
10 -557 27 -43 30 17 30 570 0 560 0 564 -20 565 -11 1 -25 -4 -31 -11z"/>
<path d="M314 1239 c-2 -4 0 -10 6 -14 6 -4 8 -11 5 -16 -4 -5 0 -9 7 -9 10 0
10 -2 -1 -9 -11 -7 -9 -10 9 -16 16 -5 19 -9 10 -15 -9 -6 -6 -10 10 -15 14
-5 18 -10 11 -14 -7 -5 -4 -12 11 -20 13 -7 81 -98 153 -203 72 -105 139 -196
149 -204 22 -15 48 -2 40 21 -3 7 0 16 7 21 8 5 10 3 4 -6 -5 -8 -4 -11 3 -6
6 4 9 13 6 20 -3 8 0 17 7 22 8 5 10 3 4 -6 -5 -8 -4 -11 3 -6 6 4 9 13 6 20
-3 7 3 19 13 27 17 13 17 13 3 -6 -14 -18 -14 -19 2 -7 9 8 15 19 12 27 -3 7
0 16 7 21 8 5 10 3 4 -6 -5 -8 -4 -11 3 -6 6 4 9 13 6 20 -3 8 0 17 7 22 8 5
10 3 4 -6 -5 -8 -4 -11 3 -6 6 4 9 12 7 19 -3 7 5 23 17 37 13 14 19 19 13 10
-9 -13 -8 -13 7 -2 9 8 15 19 12 27 -3 7 0 16 7 21 8 5 10 3 4 -6 -5 -8 -4
-11 3 -6 6 4 9 12 7 19 -3 7 5 23 17 37 13 14 19 19 13 10 -9 -13 -8 -13 7 -2
9 8 15 19 12 27 -3 7 0 16 7 21 8 5 10 3 4 -7 -5 -8 -4 -11 1 -6 5 5 9 16 9
25 0 9 5 16 11 15 7 -1 11 5 10 15 0 9 4 16 10 15 7 -1 11 5 10 15 0 9 4 16
10 15 7 -1 11 5 10 15 0 9 5 16 12 14 7 -1 12 8 12 20 0 17 -6 23 -24 24 -14
1 -27 -5 -30 -13 -3 -8 -10 -11 -16 -8 -5 3 -7 0 -4 -8 3 -8 0 -18 -7 -23 -8
-5 -10 -3 -4 6 5 8 4 11 -3 6 -6 -4 -9 -12 -7 -19 3 -7 -5 -23 -17 -37 -13
-14 -18 -19 -13 -10 9 13 8 13 -7 2 -9 -8 -15 -19 -12 -27 3 -7 0 -16 -7 -21
-8 -5 -10 -3 -4 6 5 8 4 11 -3 6 -6 -4 -9 -13 -6 -20 3 -8 0 -17 -7 -22 -8 -5
-10 -3 -4 6 5 8 4 11 -3 6 -6 -4 -9 -13 -6 -20 3 -8 0 -17 -7 -22 -8 -5 -10
-3 -4 6 5 8 4 11 -3 6 -6 -4 -9 -12 -7 -19 3 -7 -5 -23 -17 -37 -13 -14 -18
-19 -13 -10 9 13 8 13 -7 2 -9 -8 -15 -19 -12 -27 3 -7 0 -16 -7 -21 -8 -5
-10 -3 -4 6 5 8 4 11 -3 6 -6 -4 -9 -13 -6 -20 3 -8 0 -17 -7 -22 -8 -5 -10
-3 -4 6 5 8 4 11 -3 6 -6 -4 -9 -13 -6 -20 3 -8 0 -17 -7 -22 -8 -5 -10 -3 -4
6 5 8 4 11 -3 6 -6 -4 -9 -13 -6 -20 3 -8 0 -17 -7 -22 -8 -5 -10 -3 -4 6 5 8
4 11 -3 6 -6 -4 -9 -12 -7 -19 2 -7 -7 -25 -21 -42 -14 -16 -24 -23 -22 -15 3
8 -2 21 -11 28 -9 8 -10 11 -3 7 6 -3 12 -1 12 4 0 6 -6 11 -14 11 -7 0 -20 8
-27 17 -10 11 -10 14 -1 9 6 -4 12 -2 12 3 0 6 -6 11 -14 11 -8 0 -18 5 -22
12 -4 7 -3 8 4 4 7 -4 12 -2 12 3 0 6 -4 11 -10 11 -5 0 -10 7 -10 15 0 8 -4
16 -10 16 -5 1 -15 2 -22 3 -6 0 -13 8 -15 16 -4 13 -3 13 6 0 6 -8 11 -12 11
-7 0 15 -53 87 -61 82 -4 -3 -11 0 -15 6 -4 8 -3 9 4 5 18 -11 14 10 -5 25
-11 10 -14 10 -9 2 11 -19 1 -16 -15 4 -12 14 -12 16 0 9 9 -6 12 -4 9 5 -3 8
-10 14 -15 14 -6 0 -15 4 -20 9 -5 5 -2 6 6 1 9 -5 12 -3 9 6 -3 8 -10 14 -15
14 -6 0 -15 4 -20 9 -5 5 -2 6 6 1 9 -5 12 -3 9 6 -3 8 -10 14 -15 14 -6 0
-15 4 -20 9 -5 5 -2 6 6 1 9 -5 12 -3 9 6 -3 8 -10 14 -15 14 -6 0 -15 4 -20
9 -5 5 -3 6 5 2 21 -12 13 10 -13 34 -25 24 -62 34 -71 19z"/>
<path d="M1210 1231 c0 -3 0 -246 0 -539 0 -293 -3 -531 -7 -529 -5 3 -8 -9
-8 -26 0 -27 3 -31 27 -31 l27 0 3 565 3 564 -22 1 c-13 1 -23 -1 -23 -5z"/>
<path d="M1336 1221 c-3 -4 -6 -257 -6 -562 l-1 -552 24 -1 c20 -1 23 2 19 23
-3 13 -1 21 4 18 5 -3 10 6 11 20 1 19 -1 22 -8 12 -5 -8 -9 182 -9 467 0 360
3 483 12 492 9 9 9 15 0 24 -7 7 -12 16 -12 20 0 5 127 8 282 8 275 -1 282 -1
283 19 2 19 -5 20 -296 21 -167 0 -300 -3 -303 -9z"/>
<path d="M1743 1013 l-192 -3 -3 -128 -3 -127 145 0 145 0 -1 24 c-1 23 -1 23
-122 22 l-122 -2 0 85 0 86 174 0 174 0 -2 25 c0 14 -1 24 -1 23 0 -2 -86 -4
-192 -5z"/>
<path d="M347 834 c-1 -1 -1 -165 1 -363 2 -351 3 -361 22 -361 19 0 20 10 22
309 l3 309 135 -195 c74 -108 144 -201 154 -209 22 -15 48 -2 40 20 -3 7 3 19
13 27 17 13 17 13 3 -6 -14 -18 -14 -19 2 -7 9 8 15 19 12 27 -3 7 0 16 7 21
8 5 10 3 4 -6 -5 -8 -4 -11 3 -6 6 4 9 12 7 19 -3 7 5 23 17 37 13 14 19 19
13 10 -9 -13 -8 -13 7 -2 9 8 15 19 12 27 -3 7 0 16 7 21 8 5 10 3 4 -6 -5 -8
-4 -11 3 -6 6 4 9 12 7 19 -3 7 5 23 17 37 13 14 19 19 13 10 -9 -13 -8 -13 7
-2 9 8 15 19 12 27 -3 7 0 16 7 21 8 5 10 3 4 -6 -5 -8 -4 -11 3 -6 6 4 9 13
6 20 -3 8 0 17 7 22 8 5 10 3 4 -6 -5 -9 -4 -11 4 -6 6 4 9 12 5 17 -3 5 9 28
26 52 l31 42 -3 -315 -3 -315 25 0 25 0 -2 364 -2 364 -25 2 c-14 0 -22 -4
-19 -11 2 -7 -1 -15 -8 -20 -8 -5 -10 -3 -4 6 5 8 4 11 -3 6 -6 -4 -9 -13 -6
-20 3 -7 -3 -19 -13 -27 -17 -13 -17 -13 -3 6 14 18 14 19 -2 7 -9 -8 -15 -19
-12 -27 3 -7 0 -16 -7 -21 -8 -5 -10 -3 -4 6 5 8 4 11 -3 6 -6 -4 -9 -13 -6
-20 3 -8 0 -17 -7 -22 -8 -5 -10 -3 -4 6 5 8 4 11 -3 6 -6 -4 -9 -12 -7 -19 3
-7 -5 -23 -17 -37 -13 -14 -18 -19 -13 -10 9 13 8 13 -7 2 -9 -8 -15 -19 -12
-27 3 -7 0 -16 -7 -21 -8 -5 -10 -3 -4 6 5 8 4 11 -3 6 -6 -4 -9 -12 -7 -19 3
-7 -5 -23 -17 -37 -13 -14 -18 -19 -13 -10 9 13 8 13 -7 2 -9 -8 -15 -19 -12
-25 2 -7 -6 -23 -18 -37 -13 -14 -18 -19 -13 -10 9 13 8 13 -7 1 -10 -7 -15
-17 -12 -22 5 -9 -24 -59 -36 -59 -4 0 -47 57 -96 128 -48 70 -99 143 -113
161 -15 19 -20 31 -12 26 8 -4 0 13 -18 38 -17 26 -37 46 -43 44 -6 -1 -13 5
-15 13 -4 13 -3 13 6 0 7 -9 11 -10 11 -3 0 18 -50 40 -63 27z"/>
<path d="M1693 583 l-142 -4 -3 -237 -3 -237 23 1 23 1 -1 217 -1 217 122 -2
122 -1 2 26 c0 14 1 25 0 24 0 -1 -64 -4 -142 -5z"/>
</g>
</svg>
